<svg width="106" height="33" viewBox="0 0 106 33" fill="none" xmlns="http://www.w3.org/2000/svg">
    <path d="M16.5217 0.853668C7.79638 0.853668 0.722778 7.92707 0.722778 16.6524C0.722778 25.3781 7.79638 32.4509 16.5217 32.4509C25.2479 32.4509 32.3208 25.3781 32.3208 16.6524C32.3208 7.92764 25.2479 0.854423 16.5215 0.854423L16.5217 0.853668ZM23.767 23.6399C23.484 24.104 22.8765 24.2512 22.4124 23.9663C18.703 21.7005 14.0333 21.1874 8.53385 22.4438C8.0039 22.5646 7.47566 22.2325 7.35491 21.7024C7.2336 21.1723 7.56432 20.644 8.09559 20.5233C14.1138 19.1483 19.2761 19.7403 23.4406 22.2854C23.9047 22.5702 24.0518 23.1758 23.767 23.6399ZM25.7007 19.3381C25.3442 19.9177 24.5857 20.1007 24.0066 19.7441C19.7598 17.1338 13.2864 16.3779 8.26331 17.9026C7.61187 18.0994 6.92383 17.7323 6.72611 17.082C6.5299 16.4305 6.89723 15.7438 7.54753 15.5457C13.2852 13.8048 20.4183 14.6481 25.2951 17.6449C25.8743 18.0015 26.0573 18.7599 25.7007 19.3383V19.3381ZM25.8667 14.8586C20.7748 11.8342 12.3738 11.5561 7.51225 13.0316C6.73158 13.2684 5.90601 12.8277 5.66943 12.047C5.43285 11.266 5.87318 10.441 6.65442 10.2036C12.2352 8.50946 21.5125 8.83679 27.3749 12.317C28.0786 12.7337 28.3088 13.6406 27.8918 14.3419C27.4768 15.0441 26.5674 15.2755 25.8675 14.8586H25.8667ZM43.7064 15.4382C40.9784 14.7877 40.4935 14.3311 40.4935 13.3718C40.4935 12.4655 41.3462 11.8555 42.6159 11.8555C43.846 11.8555 45.0647 12.3187 46.3438 13.2722C46.3816 13.301 46.4306 13.3125 46.4778 13.305C46.5268 13.2978 46.5683 13.2716 46.5966 13.2322L47.9286 11.3546C47.9833 11.2773 47.9682 11.1707 47.8946 11.1116C46.3721 9.89045 44.6591 9.29674 42.6555 9.29674C39.7106 9.29674 37.6523 11.0643 37.6523 13.5933C37.6523 16.3052 39.4276 17.2655 42.4952 18.0068C45.1043 18.608 45.5458 19.1117 45.5458 20.012C45.5458 21.01 44.6553 21.6307 43.2215 21.6307C41.6292 21.6307 40.3294 21.093 38.8767 19.8366C38.8409 19.8045 38.7918 19.7913 38.7465 19.7932C38.6975 19.7969 38.6541 19.8196 38.6239 19.8554L37.1297 21.6326C37.0675 21.7081 37.075 21.8175 37.1467 21.8816C38.8371 23.3909 40.9161 24.187 43.1612 24.187C46.3344 24.187 48.3851 22.4533 48.3851 19.7686C48.3908 17.5034 47.0343 16.2488 43.712 15.4406L43.7064 15.4382ZM55.5655 12.7479C54.1902 12.7479 53.062 13.2897 52.13 14.4V13.1503C52.13 13.0516 52.0508 12.9713 51.9527 12.9713H49.5095C49.4114 12.9713 49.3322 13.0516 49.3322 13.1503V27.0358C49.3322 27.1339 49.4114 27.215 49.5095 27.215H51.9527C52.0508 27.215 52.13 27.1339 52.13 27.0358V22.6532C53.062 23.6965 54.1902 24.2078 55.5655 24.2078C58.1219 24.2078 60.7103 22.2401 60.7103 18.4784C60.714 14.716 58.1256 12.7477 55.5674 12.7477L55.5655 12.7479ZM57.869 18.4784C57.869 20.3931 56.6899 21.7307 54.9995 21.7307C53.3299 21.7307 52.0697 20.3327 52.0697 18.4784C52.0697 16.6239 53.3299 15.2263 54.9995 15.2263C56.6616 15.2261 57.869 16.5935 57.869 18.4782V18.4784ZM67.3416 12.7479C64.0495 12.7479 61.4706 15.2827 61.4706 18.5193C61.4706 21.7213 64.0326 24.2286 67.302 24.2286C70.6054 24.2286 73.192 21.7024 73.192 18.4784C73.192 15.2654 70.6224 12.7483 67.3416 12.7483V12.7479ZM67.3416 21.7496C65.5909 21.7496 64.2703 20.3422 64.2703 18.4775C64.2703 16.6043 65.5456 15.245 67.302 15.245C69.0641 15.245 70.3923 16.6518 70.3923 18.5184C70.3923 20.3912 69.1094 21.7496 67.3416 21.7496ZM80.2214 12.9713H77.533V10.2232C77.533 10.1248 77.4538 10.0444 77.3557 10.0444H74.9125C74.8144 10.0444 74.7333 10.1248 74.7333 10.2232V12.9713H73.5599C73.4617 12.9713 73.3825 13.0516 73.3825 13.1503V15.2495C73.3825 15.348 73.4617 15.4285 73.5599 15.4285H74.7333V20.861C74.7333 23.0551 75.8257 24.1682 77.982 24.1682C78.8574 24.1682 79.5837 23.9871 80.2686 23.5984C80.3252 23.5682 80.3591 23.5079 80.3591 23.4437V21.4439C80.3591 21.3836 80.3271 21.3251 80.2742 21.293C80.2214 21.2591 80.1554 21.2572 80.1007 21.2855C79.6309 21.5213 79.1762 21.6307 78.6669 21.6307C77.8839 21.6307 77.533 21.2741 77.533 20.478V15.4295H80.2214C80.3195 15.4295 80.3988 15.3491 80.3988 15.2504V13.1514C80.4025 13.0528 80.3233 12.9724 80.2233 12.9724L80.2214 12.9713ZM89.5865 12.982V12.6445C89.5865 11.6516 89.9676 11.2088 90.8203 11.2088C91.3297 11.2088 91.7391 11.3099 92.1975 11.4627C92.2541 11.4805 92.3126 11.4716 92.3579 11.4378C92.405 11.4041 92.4315 11.3499 92.4315 11.2926V9.23429C92.4315 9.15562 92.3824 9.086 92.3051 9.0628C91.8221 8.91885 91.2033 8.77113 90.2751 8.77113C88.0206 8.77113 86.8264 10.0416 86.8264 12.4438V12.9607H85.6529C85.5548 12.9607 85.4737 13.0411 85.4737 13.1395V15.2495C85.4737 15.348 85.5548 15.4285 85.6529 15.4285H86.8264V23.806C86.8264 23.9059 86.9075 23.9852 87.0056 23.9852H89.4469C89.5469 23.9852 89.6261 23.9059 89.6261 23.806V15.4291H91.907L95.401 23.806C95.0048 24.6851 94.6142 24.8606 94.0822 24.8606C93.6521 24.8606 93.1974 24.7323 92.7352 24.4776C92.6918 24.4549 92.639 24.4512 92.5937 24.4644C92.5465 24.4814 92.5069 24.5153 92.4881 24.5606L91.6598 26.3774C91.6202 26.4642 91.6542 26.5642 91.7372 26.6094C92.6012 27.0773 93.3804 27.2773 94.3445 27.2773C96.148 27.2773 97.1461 26.4359 98.0233 24.1757L102.261 13.2265C102.283 13.1714 102.276 13.1092 102.242 13.0603C102.21 13.0118 102.155 12.9826 102.096 12.9826H99.5533C99.476 12.9826 99.4081 13.0311 99.3836 13.1026L96.7782 20.5422L93.9256 13.0977C93.8992 13.0284 93.8332 12.9826 93.7596 12.9826H89.5865V12.982ZM84.1569 12.9713H81.7137C81.6156 12.9713 81.5345 13.0516 81.5345 13.1503V23.806C81.5345 23.9059 81.6156 23.9852 81.7137 23.9852H84.1569C84.255 23.9852 84.3361 23.9059 84.3361 23.806V13.151C84.3361 13.0524 84.2568 12.972 84.1569 12.972V12.9713ZM82.9494 8.11913C81.9816 8.11913 81.1968 8.90244 81.1968 9.87007C81.1968 10.8383 81.9816 11.6225 82.9494 11.6225C83.9173 11.6225 84.7002 10.8383 84.7002 9.87007C84.7002 8.90263 83.9154 8.11913 82.9494 8.11913ZM104.347 16.3975C103.381 16.3975 102.628 15.6212 102.628 14.6784C102.628 13.7357 103.391 12.9505 104.357 12.9505C105.323 12.9505 106.075 13.7266 106.075 14.6686C106.075 15.6114 105.313 16.3975 104.347 16.3975ZM104.357 13.1214C103.476 13.1214 102.81 13.8214 102.81 14.6784C102.81 15.5351 103.472 16.2256 104.347 16.2256C105.228 16.2256 105.894 15.5263 105.894 14.6686C105.894 13.8119 105.232 13.1214 104.357 13.1214ZM104.738 14.8454L105.224 15.5261H104.813L104.375 14.9016H104V15.5261H103.657V13.7217H104.46C104.881 13.7217 105.157 13.9362 105.157 14.2973C105.158 14.5932 104.987 14.7739 104.74 14.8454H104.738ZM104.447 14.0313H104V14.602H104.447C104.67 14.602 104.804 14.4928 104.804 14.3164C104.804 14.1308 104.67 14.0313 104.447 14.0313Z" fill="#9CA3AF"/>
    </svg>
    