<svg width="73" height="34" viewBox="0 0 73 34" fill="none" xmlns="http://www.w3.org/2000/svg">
    <path d="M0.437988 26.1657L7.85162 14.6298H1.31623C1.26085 14.2975 1.23711 13.9336 1.23711 13.53C1.23711 13.1424 1.26085 12.7863 1.31623 12.4619H11.8947L12.0292 12.818L4.56019 24.3775H11.5624C11.6178 24.7415 11.6415 25.1213 11.6415 25.5011C11.6415 25.865 11.6178 26.2131 11.5624 26.5455H0.572494L0.437988 26.1657Z" fill="#9CA3AF"/>
    <path d="M21.8324 17.2647C21.8324 16.1808 21.5554 15.437 21.0095 15.0098C20.4636 14.5904 19.6644 14.3768 18.62 14.3768C17.9792 14.3768 17.3778 14.4243 16.824 14.5271C16.2622 14.63 15.7242 14.7566 15.1862 14.9227C14.8381 14.3214 14.664 13.5935 14.664 12.7548C15.2891 12.557 15.9695 12.3988 16.7211 12.288C17.4728 12.1772 18.1928 12.1218 18.8891 12.1218C20.7168 12.1218 22.1093 12.5412 23.0666 13.372C24.0161 14.2027 24.4987 15.5399 24.4987 17.3676V26.1817C23.8579 26.3241 23.0825 26.4823 22.1647 26.6326C21.2469 26.7909 20.3132 26.8621 19.3638 26.8621C18.4697 26.8621 17.6548 26.783 16.9348 26.6168C16.2148 26.4507 15.5976 26.1896 15.0912 25.8177C14.5849 25.4537 14.1972 24.9869 13.9203 24.4173C13.6433 23.8476 13.5088 23.1592 13.5088 22.3601C13.5088 21.5768 13.6671 20.8805 13.9915 20.2871C14.308 19.6937 14.7431 19.1953 15.297 18.8076C15.8429 18.412 16.4759 18.1192 17.1959 17.9293C17.908 17.7394 18.6596 17.6366 19.4508 17.6366C20.0363 17.6366 20.5189 17.6524 20.8908 17.6761C21.2627 17.6999 21.5792 17.7394 21.8403 17.7711V17.2647H21.8324ZM21.8324 19.9311C21.5554 19.8915 21.2073 19.8599 20.788 19.8203C20.3686 19.7808 20.0126 19.7649 19.7198 19.7649C18.5805 19.7649 17.7181 19.9786 17.1247 20.3979C16.5313 20.8172 16.2306 21.4581 16.2306 22.3205C16.2306 22.8665 16.3334 23.3016 16.5313 23.6102C16.7291 23.9188 16.9822 24.1562 17.2829 24.3223C17.5836 24.4885 17.9159 24.5913 18.2877 24.623C18.6517 24.6625 18.9998 24.6784 19.3321 24.6784C19.7515 24.6784 20.1866 24.6546 20.6376 24.6071C21.0886 24.5597 21.4842 24.4964 21.8324 24.4014V19.9311Z" fill="#9CA3AF"/>
    <path d="M27.4657 12.4625C27.6477 12.4229 27.8376 12.3992 28.0275 12.3834C28.2174 12.3676 28.4152 12.3597 28.6209 12.3597C28.8029 12.3597 28.9927 12.3676 29.1985 12.3834C29.3963 12.3992 29.5941 12.4309 29.776 12.4625C29.7919 12.5021 29.8156 12.6128 29.8473 12.8027C29.871 12.9926 29.9026 13.1983 29.9264 13.4199C29.9501 13.6414 29.9818 13.8471 30.0055 14.0528C30.0292 14.2586 30.0451 14.3852 30.0451 14.4405C30.227 14.1478 30.4486 13.863 30.7018 13.586C30.9549 13.3091 31.2635 13.0638 31.6196 12.8423C31.9756 12.6208 32.3791 12.4467 32.8301 12.3201C33.2811 12.1935 33.7796 12.1302 34.3255 12.1302C35.1484 12.1302 35.9158 12.2647 36.62 12.5416C37.3242 12.8186 37.9255 13.2379 38.4319 13.8155C38.9383 14.3931 39.3259 15.1289 39.6108 16.015C39.8956 16.9012 40.038 17.9535 40.038 19.1641C40.038 21.5852 39.3813 23.4762 38.0758 24.837C36.7624 26.1979 34.911 26.8863 32.5136 26.8863C32.1101 26.8863 31.6987 26.8625 31.2793 26.8072C30.86 26.7518 30.4881 26.6806 30.1796 26.5856V33.0419C29.958 33.0815 29.7286 33.1052 29.4754 33.121C29.2301 33.1368 29.0007 33.1447 28.8029 33.1447C28.6051 33.1447 28.3756 33.1368 28.1303 33.121C27.8851 33.1052 27.6556 33.0735 27.4578 33.0419V12.4625H27.4657ZM30.1875 24.2436C30.5356 24.3702 30.8917 24.4652 31.2556 24.5206C31.6196 24.5759 32.0943 24.5997 32.6877 24.5997C33.3444 24.5997 33.9536 24.4968 34.4996 24.2832C35.0455 24.0696 35.5202 23.7452 35.9158 23.31C36.3114 22.8669 36.62 22.3131 36.8495 21.6485C37.0789 20.9838 37.1897 20.1847 37.1897 19.2748C37.1897 17.8111 36.9207 16.648 36.3826 15.7856C35.8446 14.9232 34.9585 14.4959 33.7321 14.4959C33.2732 14.4959 32.838 14.575 32.4108 14.7412C31.9914 14.9074 31.6117 15.1526 31.2873 15.4849C30.9549 15.8172 30.6938 16.2287 30.4881 16.735C30.2824 17.2414 30.1875 17.8348 30.1875 18.5311V24.2436Z" fill="#9CA3AF"/>
    <path d="M43.4244 14.5982H41.6363C41.5967 14.4479 41.573 14.2817 41.5571 14.0918C41.5413 13.9019 41.5334 13.712 41.5334 13.53C41.5334 13.3481 41.5413 13.1582 41.5571 12.9683C41.573 12.7784 41.6046 12.6043 41.6363 12.4619H46.0908V26.5534C45.893 26.5929 45.6635 26.6167 45.4183 26.6325C45.173 26.6483 44.9435 26.6562 44.7457 26.6562C44.5637 26.6562 44.3501 26.6483 44.0969 26.6325C43.8517 26.6167 43.6222 26.585 43.4244 26.5534V14.5982Z" fill="#9CA3AF"/>
    <path d="M51.9378 20.1766C51.9774 21.7115 52.373 22.8429 53.1325 23.555C53.8921 24.2671 55.0156 24.6232 56.4952 24.6232C57.7928 24.6232 59.035 24.3937 60.206 23.9348C60.3563 24.2117 60.475 24.544 60.562 24.9397C60.6569 25.3353 60.7044 25.7229 60.7281 26.1106C60.1268 26.3638 59.4622 26.5616 58.7343 26.6882C58.0143 26.8148 57.2073 26.8781 56.329 26.8781C55.0473 26.8781 53.9475 26.6961 53.0297 26.3401C52.1119 25.9841 51.3602 25.4777 50.7668 24.8289C50.1734 24.1801 49.7382 23.4126 49.4613 22.5185C49.1844 21.6324 49.0499 20.6592 49.0499 19.5911C49.0499 18.5467 49.1844 17.5735 49.4455 16.6636C49.7066 15.7537 50.118 14.9704 50.664 14.2979C51.2099 13.6333 51.9062 13.0952 52.7369 12.7075C53.5677 12.3119 54.5567 12.1141 55.6881 12.1141C56.6613 12.1141 57.5079 12.2803 58.2437 12.6126C58.9796 12.9449 59.5888 13.3959 60.0873 13.9735C60.5778 14.5511 60.9576 15.2394 61.2108 16.0306C61.464 16.8297 61.5985 17.6922 61.5985 18.6258C61.5985 18.879 61.5906 19.1559 61.5668 19.4328C61.551 19.7177 61.5273 19.9629 61.5114 20.1607H51.9378V20.1766ZM58.9163 18.1432C58.9163 17.6289 58.8451 17.1383 58.7106 16.6715C58.5761 16.2047 58.3703 15.8012 58.1092 15.453C57.8402 15.1049 57.5079 14.828 57.0965 14.6144C56.6851 14.4007 56.1945 14.2979 55.6248 14.2979C54.5092 14.2979 53.6547 14.6381 53.0534 15.3106C52.46 15.9911 52.0961 16.9326 51.9695 18.1432H58.9163Z" fill="#9CA3AF"/>
    <path d="M64.6051 12.4619C64.8029 12.4224 65.0007 12.3986 65.1827 12.3828C65.3647 12.367 65.5546 12.3591 65.7603 12.3591C65.9581 12.3591 66.1638 12.367 66.3616 12.3828C66.5594 12.3986 66.7493 12.4303 66.9076 12.4619C66.9629 12.7388 67.0183 13.0949 67.0737 13.5459C67.1291 13.9969 67.1528 14.3766 67.1528 14.6852C67.5405 14.0602 68.0469 13.5221 68.6799 13.0632C69.3128 12.6043 70.1199 12.3749 71.1089 12.3749C71.2592 12.3749 71.4095 12.3828 71.5599 12.3907C71.7181 12.3986 71.8447 12.4144 71.9555 12.4303C71.995 12.5964 72.0188 12.7705 72.0346 12.9525C72.0504 13.1344 72.0583 13.3243 72.0583 13.53C72.0583 13.7516 72.0425 13.981 72.0188 14.2184C71.995 14.4558 71.9555 14.6852 71.9238 14.9068C71.7735 14.8672 71.6232 14.8514 71.4728 14.8514C71.3146 14.8514 71.1959 14.8514 71.101 14.8514C70.6104 14.8514 70.1357 14.9226 69.6847 15.0571C69.2337 15.1916 68.8302 15.4369 68.4742 15.785C68.1181 16.1331 67.8333 16.6079 67.6196 17.2171C67.406 17.8184 67.3032 18.6017 67.3032 19.5512V26.5534C67.1054 26.5929 66.8759 26.6167 66.6306 26.6325C66.3854 26.6483 66.1559 26.6562 65.9581 26.6562C65.7603 26.6562 65.5308 26.6483 65.2856 26.6325C65.0403 26.6167 64.8029 26.585 64.5814 26.5534V12.4619H64.6051Z" fill="#9CA3AF"/>
    <path d="M48.6779 4.17034H46.0195L47.9025 2.28726C47.7522 2.08154 47.5861 1.88374 47.412 1.70176C47.23 1.51978 47.0401 1.35363 46.8265 1.21121L44.9434 3.09429V0.435825C44.6981 0.396264 44.445 0.372528 44.1839 0.372528H44.1759C43.9148 0.372528 43.6617 0.396264 43.4164 0.435825V3.09429L41.5333 1.21121C41.3276 1.36154 41.1298 1.5277 40.9478 1.70176C40.7658 1.88374 40.6076 2.07363 40.4573 2.28726L42.3482 4.17034H39.6898C39.6898 4.17034 39.6265 4.6688 39.6265 4.9299C39.6265 5.191 39.6502 5.44419 39.6898 5.68946H42.3482L40.4652 7.57254C40.7579 7.98397 41.1219 8.34793 41.5412 8.64859L43.4243 6.76551V9.42397C43.6696 9.46354 43.9228 9.48727 44.1839 9.48727H44.1918C44.4529 9.48727 44.7061 9.46354 44.9513 9.42397V6.76551L46.8344 8.64859C47.0401 8.49826 47.2379 8.3321 47.4199 8.15804C47.6019 7.97606 47.768 7.78617 47.9105 7.57254L46.0274 5.68946H48.6858C48.7254 5.44419 48.7491 5.191 48.7491 4.9299V4.92199C48.7412 4.6688 48.7254 4.41561 48.6779 4.17034ZM45.3232 4.93781C45.3232 5.27803 45.2599 5.60243 45.1491 5.90309C44.8485 6.01386 44.5241 6.07716 44.1839 6.07716C43.8436 6.07716 43.5192 6.01386 43.2186 5.90309C43.1078 5.60243 43.0445 5.27803 43.0445 4.93781V4.9299C43.0445 4.58968 43.1078 4.26528 43.2186 3.96462C43.5192 3.85385 43.8436 3.79056 44.1839 3.79056C44.5241 3.79056 44.8485 3.85385 45.1491 3.96462C45.2599 4.26528 45.3232 4.58968 45.3232 4.93781Z" fill="#9CA3AF"/>
    </svg>
    