<svg width="74" height="17" viewBox="0 0 74 17" fill="none" xmlns="http://www.w3.org/2000/svg">
    <path fill-rule="evenodd" clip-rule="evenodd" d="M60.211 5.03494C60.4926 5.52066 60.5847 6.07329 60.6151 6.69455L60.655 7.52262V13.313L60.6959 14.1419C60.7776 15.4957 61.7759 16.4967 63.1401 16.5818L63.9647 16.6227V7.52262L64.0056 6.69455C64.0394 6.08024 64.1307 5.51719 64.4165 5.02799C64.7078 4.52623 65.126 4.10993 65.6291 3.82089C66.1321 3.53186 66.7024 3.38026 67.2826 3.38131C67.8628 3.38237 68.4325 3.53605 68.9345 3.82691C69.4365 4.11778 69.8532 4.5356 70.1426 5.03842C70.4242 5.52414 70.5119 6.08719 70.5458 6.69455L70.5866 7.52001V13.313L70.6275 14.1419C70.7126 15.5027 71.7032 16.5036 73.0717 16.5818L73.8963 16.6227V6.69455C73.8963 4.93899 73.1991 3.25529 71.958 2.01367C70.7168 0.772058 69.0334 0.0741782 67.2778 0.073487C66.3382 0.072496 65.4092 0.272036 64.5529 0.658777C63.6965 1.04552 62.9326 1.61055 62.312 2.31613C61.6912 1.61083 60.9273 1.04593 60.071 0.659077C59.2147 0.272221 58.2859 0.0722947 57.3463 0.0726179C55.9716 0.0726179 54.6961 0.489693 53.6395 1.21002C52.9948 0.490562 51.5524 0.0726179 50.7243 0.0726179V16.6227L51.5524 16.5818C52.9374 16.4906 53.9384 15.5166 53.9923 14.1419L54.0366 13.313V7.52262L54.0774 6.69455C54.1122 6.06981 54.1991 5.52066 54.4815 5.03147C54.773 4.53001 55.191 4.11382 55.6937 3.82443C56.1964 3.53504 56.7662 3.38258 57.3463 3.38228C57.9267 3.38241 58.497 3.53517 58.9998 3.82524C59.5026 4.11531 59.9203 4.53249 60.211 5.03494ZM3.55576 16.5827L4.38382 16.6227H16.7961L16.7553 15.7972C16.6432 14.4365 15.6796 13.4425 14.3146 13.3539L13.4865 13.313H6.03996L15.9681 3.38141L15.9272 2.55682C15.8629 1.18221 14.8585 0.189052 13.4865 0.113456L12.6584 0.0760934L0.246094 0.0726179L0.286932 0.900686C0.395546 2.24836 1.37306 3.26324 2.72682 3.34144L3.55576 3.38228H11.0023L1.07416 13.3139L1.115 14.1419C1.19668 15.5061 2.18115 16.4941 3.55576 16.5818V16.5827ZM47.4755 2.49513C48.244 3.26352 48.8537 4.17578 49.2696 5.17982C49.6856 6.18385 49.8997 7.25999 49.8997 8.34678C49.8997 9.43356 49.6856 10.5097 49.2696 11.5137C48.8537 12.5178 48.244 13.43 47.4755 14.1984C45.9227 15.7499 43.8175 16.6214 41.6225 16.6214C39.4275 16.6214 37.3223 15.7499 35.7696 14.1984C32.5381 10.967 32.5381 5.72659 35.7696 2.49513C36.5374 1.727 37.4491 1.11763 38.4524 0.701823C39.4558 0.286018 40.5312 0.0719184 41.6173 0.0717488C42.7052 0.0709935 43.7825 0.284716 44.7877 0.700692C45.7929 1.11667 46.7063 1.72673 47.4755 2.496V2.49513ZM45.1338 4.83857C46.0646 5.77005 46.5874 7.033 46.5874 8.34982C46.5874 9.66664 46.0646 10.9296 45.1338 11.8611C44.2023 12.7919 42.9394 13.3147 41.6225 13.3147C40.3057 13.3147 39.0428 12.7919 38.1113 11.8611C37.1805 10.9296 36.6576 9.66664 36.6576 8.34982C36.6576 7.033 37.1805 5.77005 38.1113 4.83857C39.0428 3.90779 40.3057 3.38494 41.6225 3.38494C42.9394 3.38494 44.2023 3.90779 45.1338 4.83857ZM24.2496 0.0717488C25.3358 0.0720325 26.4113 0.286269 27.4146 0.702225C28.418 1.11818 29.3296 1.72771 30.0974 2.496C33.3297 5.72659 33.3297 10.9678 30.0974 14.1984C28.5446 15.7499 26.4394 16.6214 24.2444 16.6214C22.0494 16.6214 19.9442 15.7499 18.3915 14.1984C15.16 10.967 15.16 5.72659 18.3915 2.49513C19.1593 1.727 20.0709 1.11763 21.0743 0.701823C22.0777 0.286018 23.1531 0.0719184 24.2392 0.0717488H24.2496ZM27.7557 4.83683C28.6867 5.76835 29.2097 7.03148 29.2097 8.34852C29.2097 9.66555 28.6867 10.9287 27.7557 11.8602C26.8242 12.791 25.5612 13.3138 24.2444 13.3138C22.9276 13.3138 21.6646 12.791 20.7332 11.8602C19.8024 10.9287 19.2795 9.66577 19.2795 8.34895C19.2795 7.03213 19.8024 5.76919 20.7332 4.8377C21.6646 3.90692 22.9276 3.38407 24.2444 3.38407C25.5612 3.38407 26.8242 3.90692 27.7557 4.8377V4.83683Z" fill="#9CA3AF"/>
    </svg>
    